<svg width="483" height="171" viewBox="0 0 483 171" fill="none" xmlns="http://www.w3.org/2000/svg">
<rect x="71.9238" y="136.008" width="339.152" height="32.3821" rx="11.5" fill="#002877" stroke="#002877" stroke-width="5"/>
<path d="M317.159 35.4234C317.159 39.7422 317.389 43.1397 317.677 43.0245C317.965 42.9093 320.556 41.5273 323.435 39.9726L328.675 37.0934V32.3139V27.5921H322.917H317.159V35.4234Z" fill="#FD5D03"/>
<path d="M20.6598 36.8657C4.19086 40.0904 -4.7922 59.1506 2.6361 75.0437C6.03354 82.2417 13.1739 87.7121 21.1205 89.2093C22.7904 89.5548 33.6162 89.7852 45.1329 89.7852H66.0934V73.9496V58.1141H47.6666H29.2398V63.2966V68.4792H41.9082H54.5766V73.6617V78.8442H40.1807C32.0038 78.8442 24.5755 78.5563 22.9056 78.2108C18.8747 77.3471 15.5349 74.6406 13.4618 70.6098C12.0223 67.7882 11.7343 66.6365 11.7919 62.836C11.7919 55.9259 14.6135 51.1465 20.3143 48.5552C23.1359 47.2308 23.539 47.1732 41.3324 47.1732H59.4713L62.4656 42.6241C64.1356 40.148 65.6903 37.6718 65.8631 37.1536C66.2086 36.2898 64.2507 36.2323 44.7298 36.2898C32.8676 36.3474 22.0418 36.5778 20.6598 36.8657Z" fill="#002877"/>
<path d="M86.075 36.5778C85.8446 36.8081 85.6719 39.2842 85.6719 42.1058V47.1732H108.13C133.006 47.1732 133.639 47.2308 135.77 50.7434C137.843 54.1408 136.806 59.3233 133.697 61.3964C132.2 62.3177 130.069 62.4329 108.993 62.7208L85.9598 63.0087V76.253V89.4972H91.4303H96.9007L97.0735 81.5507L97.2462 73.6617H110.087H122.986L129.205 81.7234L135.482 89.7852H141.931C145.444 89.7852 148.496 89.5548 148.726 89.2669C148.899 88.979 146.077 85.0057 142.449 80.4566L135.827 72.2221L139.052 70.4946C146.653 66.4637 150.108 57.6534 147.517 48.8431C146.768 46.367 145.904 45.0426 143.025 42.221C137.209 36.4626 137.785 36.5778 110.145 36.3474C97.131 36.2323 86.3053 36.3474 86.075 36.5778Z" fill="#002877"/>
<path d="M194.102 37.1546C192.605 37.9032 190.129 41.6461 180.915 57.1938C165.137 83.6823 162.258 88.6345 162.258 89.1527C162.258 89.4407 165.08 89.671 168.477 89.7286L174.754 89.8438L181.664 78.1542C185.464 71.7049 190.417 63.2976 192.72 59.3819C195.023 55.5238 197.039 52.3567 197.269 52.3567C197.5 52.4143 202.106 60.0154 207.461 69.3439C212.874 78.7301 217.711 87.1373 218.23 88.0587L219.266 89.7862H225.6C229.804 89.7862 231.935 89.5558 231.935 89.1527C231.935 88.8072 229.574 84.4885 226.637 79.5363C209.419 50.111 202.912 39.2276 201.761 38.076C200.033 36.2909 196.521 35.8878 194.102 37.1546Z" fill="#002877"/>
<path d="M228.883 36.6331C228.767 36.921 230.034 39.3971 231.762 42.2763C233.489 45.0979 240.227 56.3843 246.676 67.3252C253.125 78.2661 259.057 87.7098 259.863 88.2857C261.705 89.7253 266.254 89.8404 268.27 88.516C269.191 87.9402 275.583 77.8054 284.566 62.7761C292.685 49.1863 299.48 37.612 299.653 37.0937C299.941 36.3451 299.135 36.23 293.607 36.23H287.273L281.86 45.2706C278.923 50.2804 273.798 58.9756 270.516 64.5612C267.176 70.2044 264.354 74.8111 264.181 74.8111C264.009 74.8111 262.224 71.8743 260.208 68.3041C258.135 64.7339 254.277 58.1118 251.628 53.5051C248.922 48.8984 245.582 43.14 244.142 40.6639L241.609 36.23H235.39C231.935 36.23 228.998 36.4027 228.883 36.6331Z" fill="#002877"/>
<path d="M347.102 41.7016V47.172H358.331H369.56L369.675 68.3053L369.848 89.4961H375.318H380.789L380.961 68.3053L381.077 47.172H392.305H403.534V41.7016V36.2311H375.318H347.102V41.7016Z" fill="#002877"/>
<path d="M414.878 36.6341C414.706 36.7492 417.758 41.068 421.616 46.2506C425.416 51.4331 431.059 59.0342 434.054 63.1802C437.048 67.3262 439.697 70.7812 439.927 70.7812C440.388 70.7812 446.146 61.8558 446.146 61.0496C446.146 60.7617 442.231 55.0033 437.451 48.3236L428.756 36.1734L421.961 36.2886C418.161 36.2886 414.993 36.4613 414.878 36.6341Z" fill="#002877"/>
<path d="M466.128 40.9535C464.4 43.6023 460.888 49.0728 458.239 53.2188C455.648 57.3073 452.365 62.3746 451.041 64.4476C445.974 72.3366 429.389 99.0555 429.102 99.8617C428.814 100.553 429.793 100.668 435.493 100.495C440.33 100.38 442.403 100.092 442.922 99.5162C443.382 99.0555 448.507 90.9938 454.438 81.6076C467.222 61.1654 472.865 52.2399 478.681 43.4872C481.042 39.917 483 36.8074 483 36.5771C483 36.4044 479.89 36.2316 476.09 36.2316H469.237L466.128 40.9535Z" fill="#FD5D03"/>
<path d="M322.917 45.676L317.446 48.6128L317.274 69.2278L317.159 89.7852H322.629C326.487 89.7852 328.215 89.5548 328.387 89.0366C328.56 88.6911 328.618 78.0957 328.56 65.5424L328.387 42.7968L322.917 45.676Z" fill="#002877"/>
<path d="M11.63 23.0523C9.71141 23.0523 7.9412 22.6072 6.31934 21.7172C4.71725 20.8074 3.44151 19.5514 2.49213 17.9493C1.56252 16.3275 1.09772 14.5078 1.09772 12.4904C1.09772 10.4729 1.56252 8.66314 2.49213 7.06106C3.44151 5.45897 4.71725 4.2129 6.31934 3.32285C7.9412 2.41302 9.71141 1.95811 11.63 1.95811C13.5683 1.95811 15.3385 2.41302 16.9406 3.32285C18.5625 4.2129 19.8382 5.45897 20.7678 7.06106C21.6974 8.66314 22.1622 10.4729 22.1622 12.4904C22.1622 14.5078 21.6974 16.3275 20.7678 17.9493C19.8382 19.5514 18.5625 20.8074 16.9406 21.7172C15.3385 22.6072 13.5683 23.0523 11.63 23.0523ZM11.63 19.9964C12.9947 19.9964 14.2111 19.6899 15.2792 19.0767C16.3472 18.4438 17.1779 17.5636 17.7713 16.4362C18.3844 15.2891 18.691 13.9738 18.691 12.4904C18.691 11.0069 18.3844 9.70153 17.7713 8.57414C17.1779 7.44674 16.3472 6.57647 15.2792 5.96333C14.2111 5.35018 12.9947 5.04361 11.63 5.04361C10.2652 5.04361 9.04882 5.35018 7.98076 5.96333C6.9127 6.57647 6.0721 7.44674 5.45896 8.57414C4.86559 9.70153 4.56891 11.0069 4.56891 12.4904C4.56891 13.9738 4.86559 15.2891 5.45896 16.4362C6.0721 17.5636 6.9127 18.4438 7.98076 19.0767C9.04882 19.6899 10.2652 19.9964 11.63 19.9964Z" fill="#002877"/>
<path d="M28.8726 9.34551C29.367 8.35657 30.0197 7.59509 30.8307 7.06106C31.6614 6.50725 32.6404 6.23034 33.7678 6.23034V9.7312H32.9075C31.5823 9.7312 30.5736 10.0674 29.8813 10.7399C29.2088 11.4124 28.8726 12.5794 28.8726 14.2408V22.8446H25.4904V6.49736H28.8726V9.34551Z" fill="#002877"/>
<path d="M40.2589 8.93016C40.8325 8.139 41.6138 7.49619 42.6027 7.00172C43.6115 6.48747 44.729 6.23034 45.9552 6.23034C47.3991 6.23034 48.7045 6.57647 49.8715 7.26873C51.0384 7.96099 51.9581 8.94994 52.6306 10.2356C53.3031 11.5014 53.6393 12.9552 53.6393 14.5968C53.6393 16.2384 53.3031 17.712 52.6306 19.0174C51.9581 20.303 51.0285 21.3117 49.8418 22.0435C48.6748 22.7556 47.3793 23.1116 45.9552 23.1116C44.6894 23.1116 43.562 22.8644 42.5731 22.3699C41.6039 21.8754 40.8325 21.2425 40.2589 20.4711V22.8446H36.8768V0.89005H40.2589V8.93016ZM50.1978 14.5968C50.1978 13.4694 49.9605 12.5002 49.4858 11.6893C49.0309 10.8586 48.4177 10.2356 47.6463 9.82021C46.8947 9.38507 46.0838 9.1675 45.2135 9.1675C44.3631 9.1675 43.5521 9.38507 42.7807 9.82021C42.0291 10.2553 41.416 10.8883 40.9413 11.719C40.4864 12.5497 40.2589 13.5287 40.2589 14.6561C40.2589 15.7835 40.4864 16.7725 40.9413 17.623C41.416 18.4537 42.0291 19.0866 42.7807 19.5217C43.5521 19.9569 44.3631 20.1744 45.2135 20.1744C46.0838 20.1744 46.8947 19.9569 47.6463 19.5217C48.4177 19.0668 49.0309 18.4141 49.4858 17.5636C49.9605 16.7131 50.1978 15.7242 50.1978 14.5968Z" fill="#002877"/>
<path d="M58.7047 4.33157C58.0916 4.33157 57.5773 4.12389 57.162 3.70854C56.7466 3.29318 56.539 2.77893 56.539 2.16579C56.539 1.55264 56.7466 1.03839 57.162 0.623035C57.5773 0.207678 58.0916 0 58.7047 0C59.2981 0 59.8025 0.207678 60.2178 0.623035C60.6332 1.03839 60.8409 1.55264 60.8409 2.16579C60.8409 2.77893 60.6332 3.29318 60.2178 3.70854C59.8025 4.12389 59.2981 4.33157 58.7047 4.33157ZM60.3662 6.49736V22.8446H56.984V6.49736H60.3662Z" fill="#002877"/>
<path d="M68.7526 9.25651V18.3053C68.7526 18.9185 68.891 19.3635 69.1679 19.6404C69.4646 19.8975 69.9591 20.0261 70.6513 20.0261H72.7281V22.8446H70.058C68.535 22.8446 67.368 22.4886 66.5571 21.7765C65.7462 21.0645 65.3407 19.9074 65.3407 18.3053V9.25651H63.4123V6.49736H65.3407V2.4328H68.7526V6.49736H72.7281V9.25651H68.7526Z" fill="#002877"/>
<path d="M126.316 116.405H119.718L118.626 119.562H115.137L121.094 102.971H124.963L130.92 119.562H127.408L126.316 116.405ZM125.438 113.818L123.017 106.816L120.596 113.818H125.438Z" fill="#002877"/>
<path d="M154.888 111.255C154.888 109.625 155.252 108.169 155.98 106.887C156.723 105.59 157.728 104.585 158.994 103.873C160.276 103.145 161.708 102.781 163.29 102.781C165.141 102.781 166.763 103.256 168.156 104.205C169.548 105.155 170.521 106.468 171.075 108.145H167.254C166.858 107.386 166.32 106.816 165.64 106.436C164.959 106.041 164.168 105.843 163.266 105.843C162.301 105.843 161.439 106.065 160.679 106.508C159.936 106.951 159.35 107.584 158.923 108.406C158.511 109.229 158.306 110.179 158.306 111.255C158.306 112.33 158.511 113.28 158.923 114.103C159.35 114.91 159.936 115.543 160.679 116.001C161.439 116.444 162.301 116.666 163.266 116.666C164.168 116.666 164.959 116.468 165.64 116.073C166.336 115.677 166.874 115.1 167.254 114.34H171.075C170.521 116.033 169.548 117.354 168.156 118.304C166.779 119.237 165.157 119.704 163.29 119.704C161.708 119.704 160.276 119.348 158.994 118.636C157.728 117.908 156.723 116.903 155.98 115.622C155.252 114.34 154.888 112.884 154.888 111.255Z" fill="#002877"/>
<path d="M206.619 116.405H200.021L198.929 119.562H195.44L201.398 102.971H205.267L211.224 119.562H207.711L206.619 116.405ZM205.741 113.818L203.32 106.816L200.899 113.818H205.741Z" fill="#002877"/>
<path d="M241.79 102.995C243.53 102.995 245.057 103.335 246.371 104.015C247.7 104.696 248.72 105.669 249.432 106.935C250.16 108.185 250.524 109.641 250.524 111.302C250.524 112.963 250.16 114.419 249.432 115.669C248.72 116.903 247.7 117.861 246.371 118.541C245.057 119.221 243.53 119.562 241.79 119.562H235.999V102.995H241.79ZM241.671 116.856C243.396 116.856 244.733 116.365 245.682 115.384C246.648 114.403 247.13 113.043 247.13 111.302C247.13 109.577 246.656 108.224 245.706 107.243C244.757 106.262 243.412 105.772 241.671 105.772H239.322V116.856H241.671Z" fill="#002877"/>
<path d="M278.882 105.582V109.878H284.46V112.441H278.882V116.927H285.172V119.562H275.559V102.971H285.172V105.582H278.882Z" fill="#002877"/>
<path d="M328.802 102.995V119.562H325.479V108.786L321.04 119.562H318.525L314.062 108.786V119.562H310.74V102.995H314.513L319.783 115.313L325.052 102.995H328.802Z" fill="#002877"/>
<path d="M367.808 102.995L362.206 113.794V119.562H358.883V113.794L353.258 102.995H357.008L360.545 110.542L364.057 102.995H367.808Z" fill="#002877"/>
<line x1="375.007" y1="110.445" x2="446.211" y2="110.445" stroke="#002877" stroke-width="4"/>
<line x1="38.5687" y1="110.445" x2="109.773" y2="110.445" stroke="#002877" stroke-width="4"/>
<path d="M196.167 75.844C196.55 75.21 197.465 75.1976 197.865 75.8209L206.097 88.653C206.524 89.3185 206.046 90.1929 205.255 90.1929H189.276C188.497 90.1929 188.017 89.3426 188.42 88.6761L196.167 75.844Z" fill="#FD5D03"/>
<path d="M100.279 147.067V148.764H95.7894V151.588H99.2298V153.254H95.7894V157.836H93.6296V147.067H100.279Z" fill="white"/>
<path d="M105.606 157.975C104.783 157.975 104.042 157.795 103.384 157.435C102.726 157.064 102.206 156.545 101.826 155.876C101.456 155.208 101.27 154.437 101.27 153.562C101.27 152.688 101.461 151.917 101.841 151.248C102.232 150.58 102.762 150.065 103.43 149.705C104.099 149.335 104.844 149.15 105.667 149.15C106.49 149.15 107.236 149.335 107.904 149.705C108.573 150.065 109.097 150.58 109.478 151.248C109.869 151.917 110.064 152.688 110.064 153.562C110.064 154.437 109.864 155.208 109.462 155.876C109.072 156.545 108.537 157.064 107.858 157.435C107.189 157.795 106.439 157.975 105.606 157.975ZM105.606 156.123C105.996 156.123 106.361 156.026 106.701 155.83C107.051 155.635 107.328 155.347 107.534 154.966C107.74 154.575 107.843 154.107 107.843 153.562C107.843 153.017 107.74 152.554 107.534 152.174C107.328 151.783 107.056 151.49 106.716 151.294C106.387 151.099 106.027 151.001 105.636 151.001C105.03 151.001 104.515 151.228 104.094 151.68C103.672 152.122 103.461 152.75 103.461 153.562C103.461 154.375 103.667 155.007 104.078 155.46C104.49 155.902 104.999 156.123 105.606 156.123Z" fill="white"/>
<path d="M119.717 149.289V157.836H117.542V156.756C117.264 157.126 116.899 157.419 116.446 157.635C116.004 157.841 115.521 157.944 114.996 157.944C114.328 157.944 113.736 157.805 113.222 157.527C112.708 157.239 112.302 156.823 112.003 156.278C111.715 155.722 111.571 155.064 111.571 154.303V149.289H113.731V153.994C113.731 154.673 113.901 155.198 114.24 155.568C114.58 155.928 115.042 156.108 115.629 156.108C116.225 156.108 116.693 155.928 117.033 155.568C117.372 155.198 117.542 154.673 117.542 153.994V149.289H119.717Z" fill="white"/>
<path d="M126.584 149.165C127.603 149.165 128.425 149.489 129.053 150.137C129.68 150.775 129.994 151.67 129.994 152.822V157.836H127.834V153.115C127.834 152.436 127.664 151.917 127.325 151.557C126.985 151.186 126.523 151.001 125.936 151.001C125.34 151.001 124.867 151.186 124.517 151.557C124.178 151.917 124.008 152.436 124.008 153.115V157.836H121.848V149.289H124.008V150.353C124.296 149.983 124.661 149.695 125.103 149.489C125.556 149.273 126.049 149.165 126.584 149.165Z" fill="white"/>
<path d="M131.492 153.531C131.492 152.668 131.662 151.901 132.001 151.233C132.351 150.564 132.824 150.05 133.421 149.69C134.017 149.33 134.681 149.15 135.411 149.15C135.966 149.15 136.496 149.273 137 149.52C137.504 149.757 137.905 150.076 138.203 150.477V146.419H140.394V157.836H138.203V156.571C137.936 156.992 137.56 157.332 137.077 157.589C136.594 157.846 136.033 157.975 135.395 157.975C134.676 157.975 134.017 157.789 133.421 157.419C132.824 157.049 132.351 156.53 132.001 155.861C131.662 155.182 131.492 154.406 131.492 153.531ZM138.219 153.562C138.219 153.038 138.116 152.59 137.91 152.22C137.704 151.84 137.427 151.552 137.077 151.356C136.727 151.15 136.352 151.048 135.951 151.048C135.55 151.048 135.179 151.145 134.84 151.341C134.501 151.536 134.223 151.824 134.007 152.205C133.801 152.575 133.698 153.017 133.698 153.531C133.698 154.046 133.801 154.498 134.007 154.889C134.223 155.27 134.501 155.563 134.84 155.768C135.19 155.974 135.56 156.077 135.951 156.077C136.352 156.077 136.727 155.979 137.077 155.784C137.427 155.578 137.704 155.29 137.91 154.92C138.116 154.539 138.219 154.087 138.219 153.562Z" fill="white"/>
<path d="M141.948 153.531C141.948 152.668 142.118 151.901 142.457 151.233C142.807 150.564 143.275 150.05 143.861 149.69C144.458 149.33 145.121 149.15 145.851 149.15C146.489 149.15 147.044 149.279 147.517 149.536C148.001 149.793 148.386 150.117 148.674 150.508V149.289H150.85V157.836H148.674V156.586C148.397 156.987 148.011 157.321 147.517 157.589C147.034 157.846 146.473 157.975 145.836 157.975C145.116 157.975 144.458 157.789 143.861 157.419C143.275 157.049 142.807 156.53 142.457 155.861C142.118 155.182 141.948 154.406 141.948 153.531ZM148.674 153.562C148.674 153.038 148.572 152.59 148.366 152.22C148.16 151.84 147.883 151.552 147.533 151.356C147.183 151.15 146.808 151.048 146.407 151.048C146.006 151.048 145.635 151.145 145.296 151.341C144.956 151.536 144.679 151.824 144.463 152.205C144.257 152.575 144.154 153.017 144.154 153.531C144.154 154.046 144.257 154.498 144.463 154.889C144.679 155.27 144.956 155.563 145.296 155.768C145.646 155.974 146.016 156.077 146.407 156.077C146.808 156.077 147.183 155.979 147.533 155.784C147.883 155.578 148.16 155.29 148.366 154.92C148.572 154.539 148.674 154.087 148.674 153.562Z" fill="white"/>
<path d="M155.474 151.063V155.198C155.474 155.486 155.541 155.696 155.674 155.83C155.818 155.954 156.055 156.015 156.384 156.015H157.387V157.836H156.029C154.209 157.836 153.299 156.951 153.299 155.182V151.063H152.28V149.289H153.299V147.175H155.474V149.289H157.387V151.063H155.474Z" fill="white"/>
<path d="M160.036 148.271C159.655 148.271 159.336 148.152 159.079 147.916C158.832 147.669 158.709 147.366 158.709 147.006C158.709 146.646 158.832 146.347 159.079 146.111C159.336 145.864 159.655 145.741 160.036 145.741C160.416 145.741 160.73 145.864 160.977 146.111C161.234 146.347 161.363 146.646 161.363 147.006C161.363 147.366 161.234 147.669 160.977 147.916C160.73 148.152 160.416 148.271 160.036 148.271ZM161.1 149.289V157.836H158.94V149.289H161.1Z" fill="white"/>
<path d="M167.029 157.975C166.207 157.975 165.466 157.795 164.808 157.435C164.15 157.064 163.63 156.545 163.25 155.876C162.879 155.208 162.694 154.437 162.694 153.562C162.694 152.688 162.884 151.917 163.265 151.248C163.656 150.58 164.186 150.065 164.854 149.705C165.523 149.335 166.268 149.15 167.091 149.15C167.914 149.15 168.66 149.335 169.328 149.705C169.997 150.065 170.521 150.58 170.902 151.248C171.292 151.917 171.488 152.688 171.488 153.562C171.488 154.437 171.287 155.208 170.886 155.876C170.495 156.545 169.961 157.064 169.282 157.435C168.613 157.795 167.862 157.975 167.029 157.975ZM167.029 156.123C167.42 156.123 167.785 156.026 168.125 155.83C168.474 155.635 168.752 155.347 168.958 154.966C169.163 154.575 169.266 154.107 169.266 153.562C169.266 153.017 169.163 152.554 168.958 152.174C168.752 151.783 168.48 151.49 168.14 151.294C167.811 151.099 167.451 151.001 167.06 151.001C166.453 151.001 165.939 151.228 165.517 151.68C165.096 152.122 164.885 152.75 164.885 153.562C164.885 154.375 165.091 155.007 165.502 155.46C165.913 155.902 166.423 156.123 167.029 156.123Z" fill="white"/>
<path d="M177.808 149.165C178.827 149.165 179.65 149.489 180.277 150.137C180.904 150.775 181.218 151.67 181.218 152.822V157.836H179.058V153.115C179.058 152.436 178.888 151.917 178.549 151.557C178.21 151.186 177.747 151.001 177.161 151.001C176.564 151.001 176.091 151.186 175.741 151.557C175.402 151.917 175.232 152.436 175.232 153.115V157.836H173.072V149.289H175.232V150.353C175.52 149.983 175.885 149.695 176.327 149.489C176.78 149.273 177.274 149.165 177.808 149.165Z" fill="white"/>
<path d="M192.013 160.705C190.768 159.769 189.765 158.504 189.004 156.91C188.243 155.306 187.863 153.542 187.863 151.618C187.863 150.343 188.038 149.129 188.387 147.978C188.737 146.815 189.226 145.777 189.853 144.861C190.48 143.936 191.2 143.169 192.013 142.562H194.203V142.763C192.784 143.905 191.72 145.237 191.01 146.759C190.311 148.271 189.961 149.891 189.961 151.618C189.961 153.357 190.311 154.987 191.01 156.509C191.72 158.021 192.784 159.353 194.203 160.505V160.705H192.013Z" fill="white"/>
<path d="M196.745 147.067L199.692 155.63L202.654 147.067H204.952L201.003 157.836H198.38L194.431 147.067H196.745Z" fill="white"/>
<path d="M208.407 147.067V157.836H206.247V147.067H208.407Z" fill="white"/>
<path d="M219.088 151.418V153.238H210.695V151.418H219.088Z" fill="white"/>
<path d="M227.822 157.836L225.493 154.21L223.379 157.836H220.926L224.336 152.405L220.895 147.067H223.379L225.693 150.662L227.791 147.067H230.244L226.866 152.482L230.306 157.836H227.822Z" fill="white"/>
<path d="M233.107 142.562C234.351 143.488 235.354 144.753 236.115 146.358C236.876 147.952 237.257 149.705 237.257 151.618C237.257 153.542 236.876 155.306 236.115 156.91C235.365 158.504 234.362 159.769 233.107 160.705H230.916V160.505C232.336 159.353 233.395 158.021 234.094 156.509C234.804 154.987 235.159 153.357 235.159 151.618C235.159 149.891 234.804 148.271 234.094 146.759C233.395 145.237 232.336 143.905 230.916 142.763V142.562H233.107Z" fill="white"/>
<path d="M246.61 154.843C246.219 154.843 245.859 154.75 245.53 154.565C245.201 154.37 244.939 154.107 244.744 153.778C244.558 153.449 244.466 153.089 244.466 152.698C244.466 152.297 244.558 151.932 244.744 151.603C244.939 151.274 245.201 151.017 245.53 150.832C245.859 150.636 246.219 150.539 246.61 150.539C247.011 150.539 247.376 150.636 247.706 150.832C248.045 151.017 248.307 151.274 248.492 151.603C248.688 151.932 248.786 152.297 248.786 152.698C248.786 153.089 248.688 153.449 248.492 153.778C248.307 154.107 248.045 154.37 247.706 154.565C247.376 154.75 247.011 154.843 246.61 154.843Z" fill="white"/>
<path d="M262.856 147.067V148.764H259.987V157.836H257.827V148.764H254.957V147.067H262.856Z" fill="white"/>
<path d="M272.377 153.362C272.377 153.65 272.357 153.917 272.316 154.164H266.067C266.109 154.791 266.319 155.285 266.7 155.645C267.08 156.005 267.554 156.185 268.119 156.185C268.921 156.185 269.492 155.84 269.832 155.151H272.161C271.914 155.974 271.441 156.653 270.742 157.188C270.043 157.712 269.184 157.975 268.166 157.975C267.343 157.975 266.602 157.795 265.944 157.435C265.296 157.064 264.787 156.545 264.417 155.876C264.057 155.208 263.877 154.437 263.877 153.562C263.877 152.678 264.057 151.901 264.417 151.233C264.777 150.564 265.281 150.05 265.929 149.69C266.576 149.33 267.322 149.15 268.166 149.15C268.978 149.15 269.703 149.325 270.341 149.675C270.989 150.024 271.488 150.518 271.837 151.156C272.197 151.793 272.377 152.529 272.377 153.362ZM270.14 152.853C270.13 152.256 269.929 151.788 269.539 151.449C269.158 151.099 268.68 150.924 268.104 150.924C267.559 150.924 267.101 151.099 266.731 151.449C266.36 151.788 266.139 152.256 266.067 152.853H270.14Z" fill="white"/>
<path d="M277.209 157.975C276.51 157.975 275.882 157.851 275.327 157.604C274.782 157.347 274.345 157.003 274.015 156.571C273.697 156.139 273.522 155.66 273.491 155.136H275.666C275.707 155.496 275.867 155.789 276.144 156.015C276.422 156.231 276.777 156.339 277.209 156.339C277.62 156.339 277.939 156.257 278.165 156.092C278.402 155.918 278.52 155.686 278.52 155.398C278.52 155.12 278.376 154.91 278.088 154.766C277.811 154.622 277.358 154.473 276.731 154.318C276.103 154.164 275.589 154.01 275.188 153.855C274.787 153.691 274.442 153.439 274.154 153.099C273.866 152.76 273.722 152.313 273.722 151.757C273.722 151.274 273.851 150.837 274.108 150.446C274.375 150.045 274.761 149.731 275.265 149.505C275.779 149.268 276.381 149.15 277.07 149.15C278.088 149.15 278.901 149.407 279.508 149.921C280.114 150.425 280.449 151.109 280.51 151.973H278.443C278.412 151.613 278.268 151.325 278.011 151.109C277.764 150.893 277.43 150.785 277.008 150.785C276.618 150.785 276.314 150.868 276.098 151.032C275.892 151.186 275.79 151.402 275.79 151.68C275.79 151.968 275.934 152.189 276.222 152.344C276.51 152.488 276.957 152.637 277.564 152.791C278.181 152.945 278.69 153.105 279.091 153.269C279.492 153.434 279.837 153.686 280.125 154.025C280.413 154.354 280.557 154.802 280.557 155.367C280.557 155.861 280.423 156.308 280.156 156.71C279.888 157.1 279.503 157.409 278.999 157.635C278.495 157.861 277.898 157.975 277.209 157.975Z" fill="white"/>
<path d="M284.875 151.063V155.198C284.875 155.486 284.942 155.696 285.076 155.83C285.22 155.954 285.456 156.015 285.785 156.015H286.788V157.836H285.431C283.61 157.836 282.7 156.951 282.7 155.182V151.063H281.682V149.289H282.7V147.175H284.875V149.289H286.788V151.063H284.875Z" fill="white"/>
<path d="M300.322 150.4C300.322 150.976 300.184 151.516 299.906 152.02C299.638 152.524 299.212 152.93 298.625 153.238C298.049 153.547 297.319 153.701 296.435 153.701H294.63V157.836H292.47V147.067H296.435C297.268 147.067 297.977 147.211 298.564 147.499C299.15 147.787 299.587 148.183 299.875 148.687C300.173 149.191 300.322 149.762 300.322 150.4ZM296.342 152.004C296.928 152.004 297.365 151.86 297.653 151.572C297.952 151.284 298.101 150.893 298.101 150.4C298.101 149.885 297.957 149.489 297.669 149.212C297.381 148.924 296.939 148.78 296.342 148.78H294.63V152.004H296.342Z" fill="white"/>
<path d="M304.016 150.801C304.293 150.287 304.653 149.885 305.096 149.597C305.548 149.309 306.062 149.165 306.638 149.165V151.433H306.068C305.389 151.433 304.874 151.593 304.525 151.912C304.185 152.23 304.016 152.786 304.016 153.578V157.836H301.856V149.289H304.016V150.801Z" fill="white"/>
<path d="M316.038 153.362C316.038 153.65 316.018 153.917 315.977 154.164H309.728C309.77 154.791 309.98 155.285 310.361 155.645C310.742 156.005 311.215 156.185 311.78 156.185C312.583 156.185 313.153 155.84 313.493 155.151H315.822C315.575 155.974 315.102 156.653 314.403 157.188C313.704 157.712 312.845 157.975 311.827 157.975C311.004 157.975 310.263 157.795 309.605 157.435C308.957 157.064 308.448 156.545 308.078 155.876C307.718 155.208 307.538 154.437 307.538 153.562C307.538 152.678 307.718 151.901 308.078 151.233C308.438 150.564 308.942 150.05 309.59 149.69C310.238 149.33 310.983 149.15 311.827 149.15C312.639 149.15 313.364 149.325 314.002 149.675C314.65 150.024 315.149 150.518 315.498 151.156C315.858 151.793 316.038 152.529 316.038 153.362ZM313.801 152.853C313.791 152.256 313.59 151.788 313.2 151.449C312.819 151.099 312.341 150.924 311.765 150.924C311.22 150.924 310.762 151.099 310.392 151.449C310.022 151.788 309.8 152.256 309.728 152.853H313.801Z" fill="white"/>
<path d="M319.775 150.523C320.052 150.132 320.433 149.808 320.916 149.551C321.41 149.284 321.971 149.15 322.598 149.15C323.328 149.15 323.986 149.33 324.573 149.69C325.169 150.05 325.637 150.564 325.977 151.233C326.326 151.891 326.501 152.657 326.501 153.531C326.501 154.406 326.326 155.182 325.977 155.861C325.637 156.53 325.169 157.049 324.573 157.419C323.986 157.789 323.328 157.975 322.598 157.975C321.971 157.975 321.415 157.846 320.932 157.589C320.459 157.332 320.073 157.008 319.775 156.617V161.909H317.615V149.289H319.775V150.523ZM324.295 153.531C324.295 153.017 324.187 152.575 323.971 152.205C323.765 151.824 323.488 151.536 323.138 151.341C322.798 151.145 322.428 151.048 322.027 151.048C321.636 151.048 321.266 151.15 320.916 151.356C320.577 151.552 320.299 151.84 320.083 152.22C319.878 152.601 319.775 153.048 319.775 153.562C319.775 154.077 319.878 154.524 320.083 154.905C320.299 155.285 320.577 155.578 320.916 155.784C321.266 155.979 321.636 156.077 322.027 156.077C322.428 156.077 322.798 155.974 323.138 155.768C323.488 155.563 323.765 155.27 323.971 154.889C324.187 154.509 324.295 154.056 324.295 153.531Z" fill="white"/>
<path d="M336.811 160.705C335.567 159.769 334.564 158.504 333.803 156.91C333.042 155.306 332.661 153.542 332.661 151.618C332.661 150.343 332.836 149.129 333.186 147.978C333.536 146.815 334.024 145.777 334.652 144.861C335.279 143.936 335.999 143.169 336.811 142.562H339.002V142.763C337.583 143.905 336.518 145.237 335.809 146.759C335.109 148.271 334.76 149.891 334.76 151.618C334.76 153.357 335.109 154.987 335.809 156.509C336.518 158.021 337.583 159.353 339.002 160.505V160.705H336.811Z" fill="white"/>
<path d="M346.527 157.836L344.197 154.21L342.084 157.836H339.631L343.04 152.405L339.6 147.067H342.084L344.398 150.662L346.496 147.067H348.949L345.57 152.482L349.011 157.836H346.527Z" fill="white"/>
<path d="M352.814 147.067V157.836H350.654V147.067H352.814Z" fill="white"/>
<path d="M361.52 151.418V153.238H354.979V151.418H361.52Z" fill="white"/>
<path d="M370.391 157.836L368.062 154.21L365.948 157.836H363.495L366.905 152.405L363.464 147.067H365.948L368.262 150.662L370.36 147.067H372.813L369.435 152.482L372.875 157.836H370.391Z" fill="white"/>
<path d="M376.679 147.067V157.836H374.519V147.067H376.679Z" fill="white"/>
<path d="M380.972 147.067V157.836H378.813V147.067H380.972Z" fill="white"/>
<path d="M384.263 142.562C385.508 143.488 386.511 144.753 387.272 146.358C388.033 147.952 388.413 149.705 388.413 151.618C388.413 153.542 388.033 155.306 387.272 156.91C386.521 158.504 385.518 159.769 384.263 160.705H382.073V160.505C383.492 159.353 384.551 158.021 385.251 156.509C385.961 154.987 386.315 153.357 386.315 151.618C386.315 149.891 385.961 148.271 385.251 146.759C384.551 145.237 383.492 143.905 382.073 142.763V142.562H384.263Z" fill="white"/>
</svg>
